<?xml version="1.0" standalone="no"?>
<!DOCTYPE svg PUBLIC "-//W3C//DTD SVG 20010904//EN"
 "http://www.w3.org/TR/2001/REC-SVG-20010904/DTD/svg10.dtd">
<svg version="1.0" xmlns="http://www.w3.org/2000/svg"
 width="250.000000pt" height="250.000000pt" viewBox="0 0 250.000000 250.000000"
 preserveAspectRatio="xMidYMid meet">
<metadata>
Created by potrace 1.14, written by Peter Selinger 2001-2017
</metadata>
<g transform="translate(0.000000,250.000000) scale(0.100000,-0.100000)"
fill="#000000" stroke="none">
<path d="M190 2495 c0 -3 7 -22 17 -43 9 -20 15 -41 14 -47 -3 -13 51 -125 61
-125 4 0 8 -9 8 -19 0 -11 7 -26 15 -35 9 -8 22 -30 31 -48 25 -57 62 -113 72
-111 6 1 8 -7 5 -17 -3 -11 -1 -20 5 -20 15 0 62 45 62 59 0 6 8 11 19 11 10
0 29 8 42 19 13 10 48 30 78 45 29 15 56 36 58 47 4 15 14 19 50 19 24 0 53 5
65 11 24 13 35 5 19 -15 -15 -18 -6 -36 18 -36 10 0 21 -3 24 -7 4 -3 17 -7
30 -8 12 -1 46 -5 75 -9 35 -5 57 -4 66 4 11 8 16 8 22 -1 4 -7 -2 -20 -16
-31 -23 -19 -47 -22 -75 -12 -13 5 -14 8 -3 15 9 6 5 9 -12 9 -41 0 -70 -11
-70 -28 0 -8 -11 -25 -25 -38 -28 -26 -38 -87 -10 -64 8 7 21 10 29 7 8 -3 17
2 21 11 5 15 9 14 25 -8 11 -14 19 -34 19 -45 0 -12 -3 -15 -6 -7 -4 10 -10 7
-21 -10 -9 -13 -16 -25 -15 -28 0 -3 -3 -13 -8 -22 -10 -18 -49 -21 -49 -3 -1
29 -20 -25 -20 -56 0 -31 4 -37 24 -41 19 -4 28 2 44 31 11 20 23 54 26 76 3
22 5 41 6 42 0 1 6 0 13 -3 8 -3 20 12 32 38 24 56 43 70 70 53 11 -7 31 -11
45 -9 14 2 52 5 85 7 32 3 61 10 63 16 2 6 12 11 22 11 9 0 23 7 30 15 13 16
45 14 100 -7 33 -12 8 -29 -29 -19 -14 4 -36 5 -48 2 -22 -6 -22 -7 -8 -35 22
-41 19 -60 -6 -53 -12 3 -32 1 -46 -4 -21 -8 -24 -13 -18 -41 4 -17 16 -41 27
-52 11 -12 31 -38 44 -59 25 -38 44 -41 44 -7 0 10 8 24 18 29 9 6 11 11 5 11
-14 0 -19 40 -5 40 4 0 13 -10 21 -21 10 -18 15 -19 22 -8 6 10 9 4 9 -19 0
-18 -4 -31 -9 -27 -5 3 -12 1 -16 -4 -3 -6 14 -19 37 -29 65 -29 78 -32 78
-21 0 6 7 3 16 -6 10 -10 14 -24 10 -40 -4 -14 -2 -25 4 -25 5 0 10 -10 10
-21 0 -19 4 -21 30 -15 23 4 30 2 30 -10 0 -8 4 -13 9 -10 5 3 12 -2 15 -11 4
-9 1 -20 -5 -24 -9 -5 -6 -20 11 -56 13 -26 25 -42 27 -35 3 9 12 7 30 -8 14
-11 30 -20 36 -20 5 0 29 -16 53 -35 23 -19 49 -35 57 -35 17 0 35 -72 19 -78
-16 -5 16 -90 40 -106 12 -8 22 -30 25 -53 3 -22 13 -50 23 -63 l18 -24 0 24
c0 158 0 210 3 257 1 12 10 25 20 28 11 4 24 15 29 26 6 10 19 19 29 19 10 0
24 7 31 15 7 8 35 18 62 21 30 4 57 14 67 25 8 11 26 19 38 19 15 0 27 9 35
25 11 24 8 29 -48 78 -84 75 -125 120 -120 133 2 6 -10 28 -28 47 -24 27 -43
37 -77 42 -34 4 -51 14 -75 42 -27 31 -35 34 -61 29 -18 -4 -34 -3 -37 3 -11
17 -109 -42 -117 -70 -5 -17 -7 -19 -8 -6 -3 51 -49 -26 -50 -84 -1 -25 -17
-49 -33 -49 -9 0 -11 61 -2 84 3 9 11 13 18 9 6 -3 8 -2 3 2 -4 5 0 19 9 33 8
13 13 26 10 29 -3 3 -11 -6 -17 -21 -13 -27 -28 -34 -30 -13 -1 6 -3 22 -4 34
-1 12 1 20 6 18 13 -9 23 85 10 98 -8 8 -11 7 -11 -3 0 -9 -7 -7 -22 7 -13 11
-41 30 -63 41 -22 11 -49 29 -61 39 -36 32 -65 46 -77 34 -6 -6 -14 -5 -24 5
-8 8 -31 14 -51 15 -35 0 -36 1 -12 10 14 6 40 7 58 4 22 -4 32 -3 28 4 -10
15 28 33 42 19 15 -15 45 -1 39 17 -4 8 13 2 40 -16 26 -16 52 -29 59 -29 6 0
17 -7 24 -15 9 -11 17 -12 31 -4 16 8 19 6 19 -10 0 -21 20 -20 77 5 17 8 35
14 41 14 16 0 20 46 5 66 -10 13 -10 20 -1 25 9 6 9 11 -2 23 -21 26 -4 31 53
16 72 -18 99 -31 93 -47 -3 -7 -2 -12 2 -11 14 3 72 -28 65 -35 -11 -11 -61
-8 -65 4 -2 6 -15 9 -28 7 -23 -4 -23 -5 -6 -13 11 -5 33 -24 49 -42 16 -18
36 -33 44 -33 8 0 11 -4 8 -10 -3 -5 -1 -10 4 -10 6 0 11 -8 11 -18 0 -10 11
-33 25 -52 14 -19 25 -41 25 -49 0 -34 22 8 26 50 2 23 8 45 12 48 5 3 17 33
27 66 19 63 24 75 45 115 31 57 91 172 98 188 5 9 16 32 25 50 l16 32 -1044 0
c-575 0 -1045 -2 -1045 -5z m1543 -210 c-4 -13 -113 -13 -114 0 0 6 10 12 23
15 31 8 94 -3 91 -15z m-860 -12 c-7 -2 -19 -2 -25 0 -7 3 -2 5 12 5 14 0 19
-2 13 -5z m482 -43 c3 -5 1 -10 -4 -10 -6 0 -11 5 -11 10 0 6 2 10 4 10 3 0 8
-4 11 -10z m55 6 c0 -3 -4 -8 -10 -11 -5 -3 -10 -1 -10 4 0 6 5 11 10 11 6 0
10 -2 10 -4z m-147 -303 c7 -39 1 -40 -18 -4 -13 26 -13 31 -1 31 7 0 16 -12
19 -27z m309 -235 c-7 -7 -12 -8 -12 -2 0 6 3 14 7 17 3 4 9 5 12 2 2 -3 -1
-11 -7 -17z m302 -309 c9 -44 8 -71 -3 -65 -4 3 -6 17 -3 31 2 15 0 25 -7 25
-6 0 -11 9 -11 20 0 31 17 23 24 -11z"/>
<path d="M743 1864 c-18 -58 -16 -69 13 -101 l25 -28 -7 30 c-4 17 -10 55 -13
85 l-6 55 -12 -41z"/>
<path d="M385 1877 c-4 -11 -3 -23 4 -30 14 -14 15 -30 1 -22 -5 3 -10 -1 -10
-9 0 -9 -5 -16 -11 -16 -14 0 -69 -56 -69 -69 0 -6 5 -13 10 -16 6 -3 10 0 10
8 0 8 10 17 23 20 16 4 9 -5 -23 -31 -25 -20 -73 -64 -107 -98 -69 -67 -81
-105 -43 -139 11 -10 22 -27 26 -37 5 -18 12 -20 63 -14 31 3 71 8 90 12 26 5
36 3 43 -10 8 -14 19 -16 67 -10 46 5 61 3 74 -11 9 -9 17 -22 16 -28 0 -8 -2
-7 -6 1 -7 18 -43 -14 -43 -38 0 -10 -7 -20 -15 -24 -8 -3 -15 0 -15 6 0 9 -3
9 -11 1 -7 -7 -4 -22 10 -49 12 -21 21 -49 21 -61 0 -12 5 -25 10 -28 6 -3 10
1 10 9 0 9 5 16 11 16 5 0 7 4 4 10 -12 19 30 133 63 168 6 7 12 18 12 24 0 5
11 23 25 40 14 16 25 27 25 23 0 -3 16 10 35 30 20 19 40 35 45 35 13 0 12 82
0 135 -5 22 -18 47 -30 57 -11 9 -20 21 -20 27 0 15 -43 81 -52 81 -5 0 -8 -7
-8 -15 0 -9 -9 -25 -20 -37 -11 -12 -20 -17 -20 -11 0 5 -13 24 -30 41 -16 18
-30 36 -30 42 0 5 -12 13 -26 16 -19 5 -29 1 -40 -14 -17 -25 -51 -18 -57 12
-3 19 -4 19 -12 3z m184 -482 c0 -5 -4 -3 -9 5 -5 8 -9 22 -9 30 0 16 17 -16
18 -35z"/>
<path d="M791 1824 c-1 -22 6 -49 14 -60 18 -24 18 -12 1 51 l-14 50 -1 -41z"/>
<path d="M975 1733 c-14 -65 -14 -65 2 -59 8 3 17 6 19 6 2 0 4 6 4 14 0 8 6
16 13 19 9 3 9 9 1 23 -17 29 -33 28 -39 -3z"/>
<path d="M1345 1740 c-4 -12 -5 -24 -2 -27 3 -2 8 5 12 17 4 12 5 24 2 27 -3
2 -8 -5 -12 -17z"/>
<path d="M1470 1728 c-22 -24 -26 -38 -10 -38 5 0 16 14 25 30 18 36 13 38
-15 8z"/>
<path d="M1269 1500 c-9 -5 -25 -11 -36 -13 -11 -1 -30 -13 -43 -25 -17 -15
-27 -19 -36 -11 -33 27 -170 34 -196 10 -36 -33 -48 -41 -63 -41 -8 0 -15 -9
-15 -20 0 -11 -12 -27 -26 -37 -38 -24 -29 -80 20 -129 20 -20 36 -40 36 -45
0 -5 8 -9 18 -9 23 0 45 -47 26 -54 -8 -3 -14 -12 -14 -20 0 -9 -9 -20 -20
-26 -15 -8 -18 -18 -14 -46 3 -29 1 -35 -10 -31 -20 8 -30 -27 -16 -53 7 -14
8 -26 2 -33 -16 -19 -25 -77 -13 -77 20 0 12 -20 -11 -30 -18 -6 -27 -4 -40
11 -19 23 -34 24 -42 4 -3 -8 4 -21 15 -29 24 -16 19 -47 -11 -81 -44 -51 -53
-117 -21 -154 l19 -22 8 23 7 23 8 -23 c6 -16 16 -22 40 -22 17 0 44 -9 60
-21 l29 -20 9 23 10 23 0 -24 c1 -13 8 -29 18 -36 19 -14 34 -107 22 -145 -4
-14 -8 -19 -8 -12 -1 6 -6 12 -12 12 -11 0 -9 -16 7 -70 7 -24 7 -24 -10 -7
-17 16 -20 16 -35 2 -10 -8 -25 -15 -33 -15 -10 0 -19 -12 -23 -33 -4 -17 -14
-41 -21 -51 -12 -17 -10 -25 11 -62 19 -33 23 -48 16 -66 -7 -17 -10 -19 -10
-5 -1 22 -18 53 -53 95 -36 42 -71 111 -65 126 3 6 -1 20 -9 31 -8 10 -14 36
-14 57 0 21 -4 38 -10 38 -5 0 -10 9 -10 20 0 22 15 27 23 8 3 -8 6 -6 6 4 1
9 -5 21 -12 25 -6 4 -18 20 -26 35 l-14 27 -18 -20 c-18 -20 -18 -20 -27 18
-40 156 -51 214 -42 208 3 -2 5 22 3 53 -4 58 -19 102 -35 102 -15 0 -6 -119
14 -178 18 -55 23 -117 12 -145 -9 -25 -44 17 -45 56 -1 23 -3 26 -6 10 -5
-28 -23 -30 -23 -3 0 11 -5 20 -11 20 -8 0 -10 -24 -7 -77 5 -79 29 -143 70
-187 10 -11 18 -26 18 -33 0 -21 27 -15 44 9 l16 22 27 -20 c37 -27 46 -98 14
-107 -14 -3 -18 -11 -14 -26 3 -12 10 -21 15 -21 5 0 8 -10 6 -22 -2 -13 -9
-22 -17 -20 -13 3 -13 -11 4 -65 6 -18 2 -25 -19 -33 -14 -5 -26 -16 -26 -25
0 -19 76 -21 83 -2 4 9 6 9 6 0 1 -10 180 -13 864 -13 623 1 857 4 843 11 -26
16 -56 47 -56 59 0 19 19 10 60 -30 23 -22 46 -40 51 -40 5 0 9 18 9 40 0 29
-4 40 -16 40 -8 0 -20 13 -25 30 -6 16 -15 28 -19 25 -10 -6 -120 93 -120 108
0 5 -10 20 -22 32 -61 59 -77 83 -71 104 3 11 10 21 15 21 5 0 -2 15 -16 33
-26 35 -34 67 -16 67 12 0 14 37 3 42 -14 6 -66 112 -76 153 -5 22 -10 56 -12
75 -4 63 -29 118 -59 129 -13 5 -26 17 -30 26 -3 10 -13 15 -20 12 -8 -3 -17
1 -20 9 -8 21 -36 17 -36 -6 0 -13 7 -20 20 -20 17 0 20 -6 19 -37 -1 -21 5
-76 14 -123 11 -64 13 -109 7 -180 -9 -116 -14 -136 -45 -203 -41 -90 -92 -98
-53 -9 10 24 18 49 18 55 0 7 7 25 15 40 26 50 52 252 33 263 -4 3 -8 -1 -8
-8 0 -9 -3 -9 -10 2 -9 13 -10 13 -10 0 -1 -11 -6 -8 -20 9 -20 23 -20 23 -20
2 0 -21 -25 -69 -42 -82 -5 -3 -7 -16 -6 -29 5 -36 -19 -35 -38 2 -9 18 -24
42 -34 53 -27 31 -34 108 -11 131 14 16 16 27 9 64 -14 76 -18 79 -42 25 -17
-37 -24 -45 -29 -32 -3 9 -2 17 4 17 6 0 -3 11 -18 24 -26 22 -29 23 -46 9
-16 -15 -19 -14 -43 8 l-26 24 -21 -27 c-41 -50 -108 -42 -94 12 3 12 0 20 -8
20 -16 0 -27 38 -12 43 6 2 -4 18 -22 36 -27 26 -30 35 -21 47 10 11 16 12 29
2 13 -10 14 -10 4 2 -7 8 -13 23 -13 34 0 16 -3 17 -9 8 -6 -10 -10 -8 -14 9
-7 28 -1 37 15 21 17 -17 48 -15 48 3 0 8 6 15 13 16 6 0 2 4 -10 9 -30 12
-20 50 13 50 13 0 24 5 24 10 0 6 -4 10 -10 10 -17 0 -33 41 -21 53 20 20 11
59 -24 107 -62 84 -143 121 -196 90z m808 -802 c-3 -8 -6 -5 -6 6 -1 11 2 17
5 13 3 -3 4 -12 1 -19z m-433 -113 c3 -8 10 -55 16 -103 6 -48 14 -97 17 -109
4 -17 1 -23 -11 -23 -12 0 -16 10 -16 36 0 19 -8 59 -17 87 -17 48 -18 50 -21
22 -2 -16 1 -31 7 -33 6 -2 11 -17 11 -34 0 -21 -6 -31 -19 -35 -11 -3 -22
-16 -26 -30 -10 -40 -24 -15 -31 55 -8 68 5 82 30 35 15 -28 15 -27 16 30 0
50 -2 57 -19 57 -20 0 -37 32 -26 50 10 16 82 12 89 -5z m178 -102 c-11 -30
-22 -9 -21 40 l1 52 13 -40 c6 -22 10 -46 7 -52z m-35 25 c-3 -8 -6 -5 -6 6
-1 11 2 17 5 13 3 -3 4 -12 1 -19z m-32 -85 c-7 -40 -25 -69 -25 -41 0 33 13
78 22 78 6 0 7 -15 3 -37z m-138 -115 c-3 -7 -5 -2 -5 12 0 14 2 19 5 13 2 -7
2 -19 0 -25z m197 8 c9 3 13 -9 14 -43 l2 -48 -20 44 c-11 24 -19 51 -19 60 1
14 2 14 6 -1 2 -9 10 -15 17 -12z m456 -102 c0 -8 -4 -12 -10 -9 -5 3 -10 13
-10 21 0 8 5 12 10 9 6 -3 10 -13 10 -21z m100 -124 c0 -5 -4 -10 -10 -10 -5
0 -10 5 -10 10 0 6 5 10 10 10 6 0 10 -4 10 -10z"/>
<path d="M1796 1384 c-3 -9 -3 -22 2 -30 6 -11 9 -10 18 4 8 13 8 20 -1 29
-10 9 -15 9 -19 -3z"/>
<path d="M2030 1377 c0 -2 7 -21 16 -42 14 -35 14 -37 -2 -31 -14 6 -16 1 -10
-33 3 -22 16 -51 29 -64 23 -26 57 -125 57 -169 0 -18 11 -35 38 -56 l37 -30
40 27 c53 36 60 78 15 103 -18 10 -30 25 -30 38 0 11 -4 20 -10 20 -5 0 -10 9
-10 20 0 15 7 20 25 20 18 0 23 4 19 15 -4 8 -15 15 -25 15 -10 0 -19 4 -19 9
0 5 -21 19 -46 30 -33 16 -44 26 -40 37 6 17 -29 53 -52 54 -7 0 -11 4 -8 9 3
5 -1 14 -9 21 -8 7 -15 10 -15 7z"/>
<path d="M1610 1365 c0 -15 18 -40 24 -34 3 3 -1 14 -9 25 -8 10 -14 15 -15 9z"/>
<path d="M1607 1286 c-9 -7 -15 -20 -12 -28 3 -7 -1 -33 -10 -57 -8 -24 -15
-56 -15 -72 0 -24 4 -29 23 -29 16 0 28 9 35 25 10 21 8 28 -9 44 -21 19 -21
19 20 26 42 7 57 25 21 25 -17 0 -20 7 -20 40 0 43 -5 47 -33 26z"/>
<path d="M1819 1193 c-12 -16 -12 -17 1 -7 8 6 22 14 30 17 13 5 12 6 -1 6 -9
1 -23 -7 -30 -16z"/>
<path d="M1901 1114 c0 -11 3 -14 6 -6 3 7 2 16 -1 19 -3 4 -6 -2 -5 -13z"/>
<path d="M1832 1070 c0 -19 2 -27 5 -17 2 9 2 25 0 35 -3 9 -5 1 -5 -18z"/>
<path d="M1903 1083 c-18 -7 -16 -33 2 -33 8 0 15 9 15 20 0 11 -1 20 -2 19
-2 0 -9 -3 -15 -6z"/>
<path d="M542 1053 c-10 -19 -5 -80 8 -88 4 -2 8 20 9 50 1 58 -3 66 -17 38z"/>
<path d="M1518 1054 c-7 -6 4 -84 12 -84 6 0 40 70 40 83 0 3 -49 5 -52 1z"/>
<path d="M572 910 c0 -19 2 -27 5 -17 2 9 2 25 0 35 -3 9 -5 1 -5 -18z"/>
<path d="M1730 925 c0 -8 5 -15 10 -15 6 0 10 7 10 15 0 8 -4 15 -10 15 -5 0
-10 -7 -10 -15z"/>
<path d="M2200 926 c0 -13 15 -19 82 -30 38 -6 26 17 -16 32 -43 16 -66 15
-66 -2z"/>
<path d="M1817 882 c-5 -7 -6 -24 -3 -37 3 -12 -1 -42 -9 -66 -9 -23 -12 -52
-9 -63 7 -20 7 -20 16 4 7 20 11 22 18 10 8 -12 10 -11 10 6 0 11 9 47 19 80
21 61 20 85 0 40 -16 -35 -27 -33 -31 7 -2 22 -6 28 -11 19z"/>
<path d="M1962 860 c0 -14 2 -19 5 -12 2 6 2 18 0 25 -3 6 -5 1 -5 -13z"/>
<path d="M632 800 c0 -14 2 -19 5 -12 2 6 2 18 0 25 -3 6 -5 1 -5 -13z"/>
<path d="M1851 685 c1 -40 1 -40 10 -10 5 18 5 33 -1 39 -7 7 -10 -4 -9 -29z"/>
<path d="M563 625 c0 -22 2 -30 4 -17 2 12 2 30 0 40 -3 9 -5 -1 -4 -23z"/>
<path d="M436 384 c-4 -9 -4 -19 -1 -22 2 -3 7 3 11 12 4 9 4 19 1 22 -2 3 -7
-3 -11 -12z"/>
<path d="M421 319 c-11 -19 -11 -21 4 -15 9 3 19 6 21 6 2 0 4 7 4 15 0 21
-13 19 -29 -6z"/>
<path d="M386 243 c-3 -4 -6 -12 -6 -20 0 -14 46 -18 54 -4 6 10 -39 32 -48
24z"/>
<path d="M620 120 c0 -11 7 -20 15 -20 8 0 15 9 15 20 0 11 -7 20 -15 20 -8 0
-15 -9 -15 -20z"/>
</g>
</svg>
